<?xml version="1.0" encoding="iso-8859-1"?>
<!-- Generator: Adobe Illustrator 19.0.0, SVG Export Plug-In . SVG Version: 6.00 Build 0)  -->
<svg version="1.1" id="Capa_1" xmlns="http://www.w3.org/2000/svg" xmlns:xlink="http://www.w3.org/1999/xlink" x="0px" y="0px"
	 viewBox="0 0 512 512" style="enable-background:new 0 0 512 512;" xml:space="preserve">
<path style="fill:#3EB500;" d="M404.17,259.146L261.502,508.807c-0.877,1.542-2.25,2.524-3.749,2.947
	c-1.141,0.327-2.366,0.327-3.506,0c-1.5-0.422-2.873-1.405-3.749-2.947l-1.362-2.376L107.83,259.146
	c-1.109-1.954-1.109-4.34,0-6.294L249.135,5.578l1.373-2.408c0.887-1.532,2.249-2.503,3.739-2.925c1.141-0.327,2.366-0.327,3.506,0
	c1.5,0.422,2.873,1.404,3.749,2.947l142.668,249.66C405.279,254.806,405.279,257.192,404.17,259.146z"/>
<g>
	<path style="fill:#52EA28;" d="M404.17,259.146L261.502,508.807c-0.877,1.542-2.25,2.524-3.749,2.947
		c-1.141,0.327-2.366,0.327-3.506,0c-1.5-0.422-2.873-1.405-3.749-2.947l-1.362-2.376l2.556-4.467l9.42-16.486l6.474-11.342
		l124.65-218.137L267.596,37.873l-6.495-11.342l-9.41-16.486l-2.556-4.467l1.373-2.408c0.887-1.532,2.249-2.503,3.739-2.925
		c1.141-0.327,2.366-0.327,3.506,0c1.5,0.422,2.873,1.404,3.749,2.947l142.668,249.66
		C405.279,254.806,405.279,257.192,404.17,259.146z"/>
	<path style="fill:#52EA28;" d="M251.691,501.963l2.556,9.79c-1.5-0.422-2.873-1.405-3.749-2.947l-1.362-2.376L107.83,259.146
		c-1.109-1.954-1.109-4.34,0-6.294L249.135,5.578l1.373-2.408c0.887-1.532,2.249-2.503,3.739-2.925l-2.556,9.8l-7.287,27.828
		l-54.977,210.199c-1.359,5.197-1.359,10.656,0,15.853l54.977,210.199L251.691,501.963z"/>
</g>
<path style="fill:#8AFF64;" d="M251.691,501.963l2.556,9.79c-1.5-0.422-2.873-1.405-3.749-2.947l-1.362-2.376L107.83,259.146
	c-1.109-1.954-1.109-4.34,0-6.294L249.135,5.578l1.373-2.408c0.887-1.532,2.249-2.503,3.739-2.925l-2.556,9.8l-7.287,27.828
	l-124.64,218.126l124.64,218.126L251.691,501.963z"/>
<path style="fill:#398C03;" d="M322.573,248.072c1.359,5.197,1.359,10.657,0,15.854l-54.987,210.209l-4.721,18.059l-5.111,19.559
	c-1.141,0.327-2.366,0.327-3.506,0l-2.556-9.79l-7.287-27.839l-54.977-210.199c-1.359-5.197-1.359-10.656,0-15.853l54.977-210.199
	l7.287-27.828l2.556-9.8c1.141-0.327,2.366-0.327,3.506,0l5.111,19.559l4.731,18.07L322.573,248.072z"/>
<path style="fill:#3EB500;" d="M261.112,485.478l1.753,6.717l-5.111,19.559c-1.141,0.327-2.366,0.327-3.506,0l-2.556-9.79
	l-7.287-27.839l-54.977-210.199c-1.359-5.197-1.359-10.656,0-15.853l54.977-210.199l7.287-27.828l2.556-9.8
	c1.141-0.327,2.366-0.327,3.506,0l5.111,19.559l-1.764,6.727l-60.018,229.467L261.112,485.478z"/>
<path style="fill:#8AFF64;" d="M237.601,248.078H110.555l-2.725,4.774c-1.109,1.954-1.109,4.34,0,6.294l2.725,4.774h127.046V248.078
	z"/>
<path style="fill:#52EA28;" d="M404.17,252.852l-2.725-4.774h-127.75v15.841h127.75l2.725-4.774
	C405.279,257.192,405.279,254.806,404.17,252.852z"/>
<path style="fill:#3EB500;" d="M322.576,263.919L322.576,263.919H189.423l0,0c-1.357-5.193-1.357-10.648,0-15.841l0,0h133.152l0,0
	C323.933,253.272,323.933,258.726,322.576,263.919z"/>
<g>
</g>
<g>
</g>
<g>
</g>
<g>
</g>
<g>
</g>
<g>
</g>
<g>
</g>
<g>
</g>
<g>
</g>
<g>
</g>
<g>
</g>
<g>
</g>
<g>
</g>
<g>
</g>
<g>
</g>
</svg>
